<svg viewBox="0 0 16 16" fill="none" xmlns="http://www.w3.org/2000/svg" id="Whatsapp-Alt--Streamline-Unicons" height="16" width="16">
  <desc>
    Whatsapp Alt Streamline Icon: https://streamlinehq.com
  </desc>
  <path d="M15.84 3.7272c-0.008799999999999999 -0.3382666666666666 -0.03493333333333333 -0.6758 -0.0784 -1.0113333333333332 -0.05853333333333333 -0.2939333333333333 -0.15606666666666666 -0.5786666666666667 -0.29006666666666664 -0.8467333333333333 -0.14013333333333333 -0.29079999999999995 -0.3283333333333333 -0.5558666666666666 -0.5566666666666666 -0.7839999999999999 -0.2304 -0.22566666666666668 -0.495 -0.41346666666666665 -0.7839999999999999 -0.5566666666666666 -0.26839999999999997 -0.13133333333333333 -0.5531999999999999 -0.22626666666666664 -0.8467333333333333 -0.2822C12.9518 0.19646666666666668 12.616666666666667 0.16766666666666666 12.280666666666665 0.15999999999999998H3.7272c-0.3382666666666666 0.008799999999999999 -0.6758 0.034999999999999996 -1.0113333333333332 0.0784 -0.2939333333333333 0.05853333333333333 -0.5786666666666667 0.15606666666666666 -0.8467333333333333 0.29006666666666664 -0.29079999999999995 0.14013333333333333 -0.5558666666666666 0.3283333333333333 -0.7839999999999999 0.5566666666666666 -0.22566666666666668 0.2304 -0.41346666666666665 0.495 -0.5566666666666666 0.7839999999999999 -0.13133333333333333 0.26839999999999997 -0.22626666666666664 0.5531333333333333 -0.2822 0.8467333333333333C0.19646666666666668 3.0482 0.16766666666666666 3.3834 0.15999999999999998 3.719333333333333v8.553466666666665c0.008799999999999999 0.33819999999999995 0.034999999999999996 0.6758 0.0784 1.0113333333333332 0.05853333333333333 0.2939333333333333 0.15606666666666666 0.5787333333333333 0.29006666666666664 0.8467333333333333 0.14013333333333333 0.29079999999999995 0.3283333333333333 0.5558666666666666 0.5566666666666666 0.7839999999999999 0.2304 0.22566666666666668 0.495 0.41346666666666665 0.7839999999999999 0.5566666666666666 0.26839999999999997 0.1314 0.5531333333333333 0.22626666666666664 0.8467333333333333 0.2822 0.3323333333333333 0.0498 0.6675333333333333 0.0786 1.0034666666666667 0.08626666666666666h8.553466666666665c0.33819999999999995 -0.008799999999999999 0.6758 -0.034999999999999996 1.0113333333333332 -0.0784 0.2939333333333333 -0.05853333333333333 0.5787333333333333 -0.15606666666666666 0.8467333333333333 -0.29006666666666664 0.29079999999999995 -0.14013333333333333 0.5558666666666666 -0.3283333333333333 0.7839999999999999 -0.5566666666666666 0.22566666666666668 -0.2304 0.41346666666666665 -0.495 0.5566666666666666 -0.7839999999999999 0.1314 -0.26839999999999997 0.22626666666666664 -0.5531999999999999 0.2822 -0.8467333333333333 0.0498 -0.3323333333333333 0.0786 -0.6674666666666667 0.08626666666666666 -1.0034666666666667V3.7272ZM8.180333333333333 13.488c-0.9415333333333333 -0.0046 -1.8666 -0.24733333333333332 -2.689133333333333 -0.7056l-2.9791999999999996 0.7839999999999999 0.7839999999999999 -2.9164666666666665c-0.5055999999999999 -0.8494666666666666 -0.7761333333333332 -1.8182 -0.7839999999999999 -2.806733333333333 0.0031333333333333335 -1.111 0.3349333333333333 -2.1961999999999997 0.9535999999999999 -3.1189999999999998 0.6187333333333334 -0.9227333333333334 1.4966666666666666 -1.6418 2.5232 -2.0665999999999998 1.0266 -0.42479999999999996 2.1559333333333335 -0.5362666666666667 3.245733333333333 -0.3204666666666667 1.0898666666666665 0.2158 2.0914 0.7492666666666665 2.8786666666666663 1.5332 0.7872 0.7839999999999999 1.3248666666666666 1.7833333333333332 1.5451333333333332 2.8722666666666665 0.22039999999999998 1.0889333333333333 0.11359999999999999 2.2187333333333332 -0.3069333333333333 3.247066666666666 -0.4205333333333333 1.0283333333333333 -1.1359333333333332 1.9092666666666667 -2.0560666666666663 2.5317333333333334 -0.9202 0.6225999999999999 -2.0040666666666667 0.9588666666666665 -3.115 0.9665999999999999Zm0 -10.293933333333332c-0.8311999999999999 0.009533333333333333 -1.6449999999999998 0.23913333333333334 -2.3586 0.6654 -0.7136666666666667 0.4263333333333333 -1.3015333333333332 1.0341333333333331 -1.7038666666666666 1.7615333333333334 -0.4023333333333333 0.7273333333333333 -0.6047333333333333 1.5483333333333331 -0.5866 2.3794 0.01813333333333333 0.8310666666666666 0.2562 1.6424666666666665 0.6898666666666666 2.3516l0.10973333333333332 0.18033333333333335 -0.4704 1.7169333333333334 1.7875333333333332 -0.48606666666666665 0.17246666666666666 0.10193333333333333c0.7131333333333334 0.42006666666666664 1.5244 0.6445333333333333 2.352 0.6507333333333333 1.2475999999999998 0 2.4440666666666666 -0.49559999999999993 3.3262 -1.3778 0.8822666666666665 -0.8821999999999999 1.3778 -2.0786666666666664 1.3778 -3.3262 0 -1.2475999999999998 -0.49553333333333327 -2.4440666666666666 -1.3778 -3.3262666666666663 -0.8821333333333332 -0.8821333333333332 -2.0786 -1.3777333333333335 -3.3262 -1.3777333333333335l0.007866666666666666 0.0862Zm2.7439999999999998 6.679666666666667c-0.10273333333333332 0.17133333333333334 -0.2402 0.3191333333333333 -0.4036 0.4338666666666667 -0.1634 0.11479999999999999 -0.34913333333333335 0.19406666666666667 -0.5450666666666666 0.23253333333333331 -0.29279999999999995 0.053599999999999995 -0.5942 0.034666666666666665 -0.8780666666666666 -0.05486666666666666 -0.26713333333333333 -0.08346666666666666 -0.5288666666666666 -0.183 -0.7839999999999999 -0.29793333333333333 -0.9692666666666666 -0.4862666666666667 -1.7958 -1.2156666666666665 -2.3990666666666662 -2.1167999999999996 -0.3278 -0.41746666666666665 -0.5266666666666666 -0.9215333333333333 -0.5722666666666667 -1.4504000000000001 -0.004666666666666666 -0.21966666666666668 0.036866666666666666 -0.4378666666666667 0.12193333333333334 -0.6404666666666666 0.08513333333333334 -0.2026 0.2118 -0.38506666666666667 0.3719333333333333 -0.5355333333333333 0.0472 -0.05346666666666666 0.10506666666666666 -0.09646666666666666 0.16986666666666667 -0.12613333333333332 0.06486666666666666 -0.029733333333333334 0.1352 -0.04546666666666666 0.20646666666666663 -0.04633333333333334h0.2195333333333333c0.08626666666666666 0 0.20386666666666667 0 0.3136 0.24306666666666665s0.39986666666666665 0.9721333333333333 0.4390666666666666 1.0427333333333333c0.019266666666666665 0.037599999999999995 0.029266666666666667 0.07926666666666667 0.029266666666666667 0.12146666666666667s-0.009999999999999998 0.08393333333333333 -0.029266666666666667 0.12153333333333333c-0.034666666666666665 0.08526666666666667 -0.08226666666666665 0.1646 -0.14113333333333333 0.2352 -0.0706 0.08626666666666666 -0.149 0.18819999999999998 -0.21166666666666667 0.2508666666666667 -0.06273333333333334 0.06273333333333334 -0.14113333333333333 0.14113333333333333 -0.06273333333333334 0.28226666666666667 0.21333333333333332 0.36 0.47739999999999994 0.6873999999999999 0.7839999999999999 0.9721333333333333 0.33386666666666664 0.2951333333333333 0.7157333333333333 0.5309999999999999 1.1289333333333333 0.6978 0.14113333333333333 0.07053333333333334 0.2274 0.06273333333333334 0.30579999999999996 0 0.0784 -0.06273333333333334 0.3528 -0.4076666666666667 0.44686666666666663 -0.5488s0.18813333333333332 -0.1176 0.3136 -0.0706c0.12539999999999998 0.04706666666666666 0.8231999999999999 0.3842 0.9643333333333333 0.4547333333333333 0.14106666666666667 0.0706 0.22733333333333333 0.10193333333333333 0.2665333333333333 0.16466666666666666 0.033999999999999996 0.2051333333333333 0.015133333333333334 0.4156666666666667 -0.05486666666666666 0.6115333333333333v0.023466666666666667Z" fill="#000000" stroke-width="0.6667"></path>
</svg>